<svg id="Capa_1" enable-background="new 0 0 512 512" height="512" viewBox="0 0 512 512" width="512" xmlns="http://www.w3.org/2000/svg"><g><path d="m409.591 81.397v77.791h-307.236v-77.791l153.658-59.76z" fill="#f3f5f9"/><path d="m385.939 159.188h23.652v-77.791l-23.652-9.204z" fill="#cfd7e6"/><path d="m446.354 115.596-187.099-77.958c-2.101-.875-4.464-.875-6.565 0l-187.098 77.958c-4.351 1.813-9.347-.244-11.16-4.595l-6.565-15.756c-1.813-4.351.244-9.347 4.595-11.16l200.229-83.429c2.101-.875 4.464-.875 6.565 0l200.229 83.428c4.351 1.813 6.408 6.81 4.595 11.16l-6.565 15.756c-1.814 4.352-6.81 6.409-11.161 4.596z" fill="#f25a3c"/><path d="m459.484 84.084-200.229-83.427c-2.101-.875-4.464-.875-6.565 0l-8.566 3.569 191.662 79.859c4.351 1.813 6.408 6.81 4.595 11.16l-6.342 15.221 12.314 5.131c4.351 1.813 9.347-.244 11.16-4.595l6.565-15.756c1.815-4.352-.243-9.349-4.594-11.162z" fill="#e63a3a"/><g><g><g><path d="m460.86 153.618c18.848 0 34.128 15.28 34.128 34.128v256.067c0 18.848-15.28 34.128-34.128 34.128h-409.72c-18.848 0-34.128-15.28-34.128-34.128v-256.067c0-18.848 15.28-34.128 34.128-34.128z" fill="#ffdf40"/><path d="m418.042 187.746c4.019 0 7.495 2.804 8.332 6.735 2.869 13.469 14.126 24.865 27.775 27.754 3.923.83 6.712 4.317 6.712 8.327v170.436c0 4.01-2.789 7.497-6.712 8.327-13.649 2.888-24.906 14.285-27.775 27.753-.837 3.931-4.313 6.735-8.332 6.735h-324.084c-4.019 0-7.495-2.804-8.332-6.735-2.869-13.468-14.126-24.865-27.775-27.753-3.923-.83-6.712-4.317-6.712-8.327v-170.436c0-4.01 2.789-7.497 6.712-8.327 13.649-2.888 24.906-14.285 27.775-27.754.837-3.93 4.313-6.735 8.332-6.735z" fill="#f3f5f9"/><path d="m460.86 153.618h-23.698c18.848 0 34.128 15.28 34.128 34.128v256.067c0 18.848-15.28 34.128-34.128 34.128h23.698c18.848 0 34.128-15.28 34.128-34.128v-256.067c0-18.848-15.279-34.128-34.128-34.128z" fill="#ffbe40"/><path d="m454.149 222.234c-13.649-2.888-24.906-14.285-27.775-27.754-.837-3.93-4.313-6.735-8.332-6.735h-23.698c4.019 0 7.495 2.804 8.332 6.735 2.869 13.469 14.126 24.865 27.775 27.754 3.923.83 6.712 4.317 6.712 8.327v170.436c0 4.01-2.789 7.497-6.712 8.327-13.649 2.888-24.906 14.285-27.775 27.753-.837 3.931-4.313 6.735-8.332 6.735h23.698c4.019 0 7.495-2.804 8.332-6.735 2.869-13.468 14.126-24.865 27.775-27.753 3.923-.83 6.712-4.317 6.712-8.327v-170.435c-.001-4.01-2.789-7.498-6.712-8.328z" fill="#cfd7e6"/></g><g><path d="m462.993 195.551h-4.266c-4.268 0-7.728-3.46-7.728-7.727 0-4.268 3.459-7.728 7.728-7.728h4.266c4.268 0 7.728 3.46 7.728 7.728 0 4.267-3.459 7.727-7.728 7.727z" fill="#7784ff"/></g><g><path d="m53.273 195.551h-4.266c-4.268 0-7.728-3.46-7.728-7.727 0-4.268 3.46-7.728 7.728-7.728h4.266c4.268 0 7.728 3.46 7.728 7.728-.001 4.267-3.46 7.727-7.728 7.727z" fill="#7784ff"/></g><g><g><path d="m53.273 451.54h-4.266c-4.268 0-7.728-3.46-7.728-7.728s3.46-7.728 7.728-7.728h4.266c4.268 0 7.728 3.46 7.728 7.728-.001 4.269-3.46 7.728-7.728 7.728z" fill="#7784ff"/></g></g><g><g><path d="m462.994 451.54h-4.266c-4.268 0-7.728-3.46-7.728-7.728s3.459-7.728 7.728-7.728h4.266c4.268 0 7.728 3.46 7.728 7.728 0 4.269-3.459 7.728-7.728 7.728z" fill="#7784ff"/></g></g></g><g><path d="m316.19 256.025h-120.513c-4.418 0-8-3.582-8-8v-18.128c0-4.418 3.582-8 8-8h120.513c4.418 0 8 3.582 8 8v18.128c0 4.419-3.582 8-8 8z" fill="#8db5ff"/><g><g><path d="m356.655 297.904h-254.298c-4.268 0-7.728-3.46-7.728-7.728s3.46-7.728 7.728-7.728h254.298c4.268 0 7.728 3.46 7.728 7.728-.001 4.268-3.46 7.728-7.728 7.728z" fill="#595353"/></g></g><g><g><path d="m407.51 332.032h-305.153c-4.268 0-7.728-3.46-7.728-7.727 0-4.268 3.46-7.728 7.728-7.728h305.153c4.268 0 7.727 3.46 7.727 7.728.001 4.267-3.459 7.727-7.727 7.727z" fill="#595353"/></g></g><g><g><path d="m297.527 366.16h-143.978c-4.268 0-7.728-3.46-7.728-7.728s3.46-7.728 7.728-7.728h143.978c4.268 0 7.728 3.46 7.728 7.728s-3.46 7.728-7.728 7.728z" fill="#595353"/></g></g><g><path d="m153.482 417.376h-34.058c-4.268 0-7.728-3.46-7.728-7.728s3.46-7.728 7.728-7.728h34.058c4.268 0 7.728 3.46 7.728 7.728s-3.46 7.728-7.728 7.728z" fill="#68d9c0"/></g><path d="m315.947 221.897h-23.698c4.552 0 8.243 3.69 8.243 8.243v17.643c0 4.552-3.691 8.243-8.243 8.243h23.698c4.552 0 8.243-3.69 8.243-8.243v-17.643c0-4.552-3.691-8.243-8.243-8.243z" fill="#7784ff"/></g><g><g><path d="m401.72 411.1 5.988 11.977c1.185 2.369 1.802 4.982 1.802 7.631v72.753c0 5.824-5.705 9.936-11.23 8.094l-22.897-7.632-14.367-13.115c-1.751-.584-3.645-.584-5.396 0l-14.366 13.114-22.898 7.633c-5.525 1.842-11.23-2.271-11.23-8.094v-72.753c0-2.649.617-5.262 1.802-7.631l5.987-11.974z" fill="#f25a3c"/><path d="m407.708 423.077-5.988-11.977-23.697.001 5.988 11.976c1.185 2.369 1.801 4.982 1.801 7.631v72.753c0 1.329-.309 2.561-.832 3.661l13.3 4.433c5.525 1.842 11.23-2.271 11.23-8.094v-72.753c0-2.649-.617-5.262-1.802-7.631z" fill="#e63a3a"/><path d="m375.382 411.101-34.128.001v92.821l14.366-4.789c1.751-.584 3.645-.584 5.396 0l14.366 4.789z" fill="#f3f5f9"/><circle cx="358.318" cy="358.424" fill="#ffdf40" r="68.256"/><g fill="#ffbe40"><circle cx="358.318" cy="358.424" r="34.128"/><path d="m358.318 290.167c-4.044 0-7.998.372-11.849 1.046 32.045 5.612 56.407 33.557 56.407 67.21s-24.362 61.598-56.407 67.21c3.851.674 7.805 1.046 11.849 1.046 37.697 0 68.256-30.559 68.256-68.256s-30.559-68.256-68.256-68.256z"/></g></g><g><g><path d="m360.45 366.151h-4.265c-4.268 0-7.728-3.46-7.728-7.727 0-4.268 3.459-7.728 7.728-7.728h4.265c4.268 0 7.727 3.46 7.727 7.728.001 4.267-3.458 7.727-7.727 7.727z" fill="#595353"/></g></g></g></g></g></svg>