<svg id="Capa_1" enable-background="new 0 0 512 512" height="512" viewBox="0 0 512 512" width="512" xmlns="http://www.w3.org/2000/svg"><g><g><g><path d="m449.879 68.193v-27.022c0-6.088-4.935-11.023-11.023-11.023h-43.69c-6.088 0-11.023 4.935-11.023 11.023v27.022z" fill="#a6ced3"/><g><g><path d="m112.835 271.208h-30.58c-6.149 0-11.133-4.984-11.133-11.133v-34.813h52.847v34.813c-.001 6.149-4.985 11.133-11.134 11.133z" fill="#a6ced3"/><g><path d="m476.375 60.819h-391.531c-21.865 0-39.59 17.725-39.59 39.59v115.997c0 14.252 11.554 25.806 25.806 25.806h52.857c10.347 0 19.694-6.181 23.746-15.702l5.759-13.534c4.737-11.133 15.667-18.361 27.766-18.361h118.037c15.746 0 28.51 12.764 28.51 28.51v115.775c0 15.746-12.764 28.51-28.51 28.51h-271.699c-11.06 0-20.026 8.966-20.026 20.026v52.417c0 11.775 4.943 23.01 13.625 30.965 7.745 7.097 17.869 11.034 28.374 11.034h414.502c22.153 0 40.118-17.945 40.143-40.097l.356-352.81c0-15.534-12.592-28.126-28.125-28.126z" fill="#f1faff"/><g><path d="m476.375 60.819h-66.405c15.533 0 28.125 12.592 28.125 28.125l-.356 352.81c-.025 22.152-17.99 40.097-40.143 40.097h66.405c22.153 0 40.118-17.945 40.143-40.097l.356-352.81c0-15.533-12.592-28.125-28.125-28.125z" fill="#dcf5ff"/></g><path d="m45.254 100.409v115.997c0 14.252 11.554 25.806 25.806 25.806h52.857c10.347 0 19.694-6.181 23.746-15.702l5.759-13.534c4.737-11.133 15.667-18.361 27.766-18.361-.003 0-.009-133.797-.009-133.797h-96.335c-21.865.001-39.59 17.726-39.59 39.591z" fill="#dcf5ff"/><path d="m246.925 351.084c0-10.529 8.535-19.064 19.064-19.064h-194.546c-9.307 0-16.851 7.544-16.851 16.851v73.624c0 9.306 7.544 16.851 16.851 16.851h158.631c9.307 0 16.851-7.544 16.851-16.851z" fill="#fbc980"/><path d="m200.322 332.02c-10.529 0-19.064 8.535-19.064 19.064v71.411c0 9.306-7.544 16.851-16.851 16.851h65.667c9.307 0 16.851-7.544 16.851-16.851v-71.411c0-10.529 8.535-19.064 19.064-19.064z" fill="#f9bc66"/><path d="m265.988 332.02c10.529 0 19.064 8.535 19.064 19.064v16.326h-38.127v-16.326c0-10.529 8.535-19.064 19.063-19.064z" fill="#fbc980"/></g></g><path d="m455.747 222.765h-77.472c-7.45 0-13.49-6.04-13.49-13.49v-96.741c0-7.45 6.04-13.49 13.49-13.49h77.472c7.45 0 13.49 6.04 13.49 13.49v96.741c0 7.45-6.039 13.49-13.49 13.49z" fill="#c7eefb"/><path d="m469.237 209.275v-96.741c0-7.45-6.04-13.49-13.49-13.49h-17.663l-.125 123.722h17.787c7.452-.001 13.491-6.041 13.491-13.491z" fill="#97e4f9"/><circle cx="417.012" cy="332.02" fill="#f8636f" r="35.39"/></g></g></g><g><path d="m438.095 168.666h-42.167c-4.142 0-7.5 3.358-7.5 7.5s3.358 7.5 7.5 7.5h42.167c4.142 0 7.5-3.358 7.5-7.5s-3.358-7.5-7.5-7.5z"/><path d="m438.095 138.142h-42.167c-4.142 0-7.5 3.358-7.5 7.5s3.358 7.5 7.5 7.5h42.167c4.142 0 7.5-3.358 7.5-7.5s-3.358-7.5-7.5-7.5z"/><path d="m97.545 368.612c-4.142 0-7.5 3.358-7.5 7.5v19.141c0 4.142 3.358 7.5 7.5 7.5s7.5-3.358 7.5-7.5v-19.141c0-4.142-3.358-7.5-7.5-7.5z"/><path d="m504.265 321.989h.008c4.138 0 7.723-3.353 7.728-7.493v-225.552c0-19.644-15.981-35.625-35.625-35.625h-18.996v-12.148c0-10.213-8.309-18.523-18.522-18.523h-43.69c-10.213 0-18.522 8.31-18.522 18.523v12.148h-291.8c-25.965 0-47.09 21.125-47.09 47.09v115.997c0 15.807 11.073 29.068 25.867 32.458v11.211c0 10.274 8.359 18.633 18.633 18.633h7.79v17.921c0 4.142 3.358 7.5 7.5 7.5s7.5-3.358 7.5-7.5v-17.921h7.79c10.274 0 18.633-8.359 18.633-18.633v-11.232c10.214-2.369 18.868-9.46 23.096-19.396l5.759-13.534c3.566-8.381 11.756-13.797 20.865-13.797h118.038c11.585 0 21.01 9.425 21.01 21.01v115.774c0 11.585-9.425 21.01-21.01 21.01h-6.673v-8.827c0-14.647-11.917-26.563-26.564-26.563h-194.547c-13.427 0-24.351 10.924-24.351 24.351v11.04h-19.566c-15.178-.001-27.526 12.347-27.526 27.525v52.417c0 27.06 21.911 49.499 49.499 49.499h414.502c26.241 0 47.97-21.348 47.999-47.59v-92.005c.004-4.142-3.613-7.503-7.755-7.507-.003 0-.005 0-.008 0-4.139 0-7.496 3.353-7.5 7.493l-.093 92.004c-.02 17.979-14.664 32.605-32.643 32.605h-414.502c-19.238 0-34.499-15.649-34.499-34.499v-52.417c0-6.907 5.619-12.526 12.526-12.526h19.566v47.585c0 13.427 10.924 24.351 24.351 24.351h158.63c13.427 0 24.351-10.924 24.351-24.351v-47.585h44.801c19.856 0 36.01-16.154 36.01-36.01v-115.774c0-19.856-16.154-36.01-36.01-36.01h-110.538c-.001-10.738-.003-31.635-.004-53.4 0-4.142-3.358-7.5-7.5-7.5s-7.5 3.358-7.5 7.5l.004 54.17c-12.004 2.429-22.242 10.579-27.167 22.153l-5.759 13.534c-2.875 6.757-9.472 11.125-16.813 11.137-.022 0-.047.001-.07.001h-52.818c-10.094 0-18.306-8.212-18.306-18.306v-115.996c0-17.695 14.396-32.09 32.09-32.09h88.836l.001 30.335c0 4.142 3.358 7.5 7.5 7.5s7.5-3.358 7.5-7.5l-.001-30.334h287.695c11.373 0 20.625 9.252 20.625 20.618l-.228 225.544c-.004 4.142 3.351 7.502 7.493 7.507zm-264.84 100.506c0 5.156-4.195 9.351-9.351 9.351h-125.029v-1.5c0-4.142-3.358-7.5-7.5-7.5s-7.5 3.358-7.5 7.5v1.5h-18.602c-5.156 0-9.351-4.195-9.351-9.351v-73.625c0-5.156 4.195-9.351 9.351-9.351h18.602v1.5c0 4.142 3.358 7.5 7.5 7.5s7.5-3.358 7.5-7.5v-1.5h137.031c-1.698 3.498-2.651 7.421-2.651 11.563zm15-71.412c0-6.376 5.188-11.563 11.563-11.563 6.376 0 11.564 5.188 11.564 11.563v8.827h-23.127zm-141.59-87.375h-30.58c-2.003 0-3.633-1.63-3.633-3.633v-10.363h37.847v10.363c-.001 2.004-1.631 3.633-3.634 3.633zm278.809-222.537c0-1.942 1.58-3.523 3.522-3.523h43.69c1.942 0 3.522 1.581 3.522 3.523v12.148h-50.735v-12.148z"/><path d="m476.737 209.274v-96.741c0-11.574-9.416-20.99-20.99-20.99h-77.472c-11.574 0-20.99 9.416-20.99 20.99v96.741c0 11.574 9.416 20.99 20.99 20.99h77.472c11.574.001 20.99-9.415 20.99-20.99zm-15 0c0 3.303-2.687 5.99-5.99 5.99h-77.472c-3.303 0-5.99-2.687-5.99-5.99v-96.741c0-3.303 2.687-5.99 5.99-5.99h77.472c3.303 0 5.99 2.687 5.99 5.99z"/><path d="m417.012 289.13c-23.65 0-42.89 19.24-42.89 42.89s19.24 42.89 42.89 42.89 42.89-19.24 42.89-42.89-19.24-42.89-42.89-42.89zm0 70.78c-15.379 0-27.89-12.511-27.89-27.89s12.511-27.89 27.89-27.89 27.89 12.511 27.89 27.89-12.511 27.89-27.89 27.89z"/></g></g></svg>